<svg xmlns="http://www.w3.org/2000/svg" version="1.1" xmlns:xlink="http://www.w3.org/1999/xlink" xmlns:svgjs="http://svgjs.dev/svgjs" width="2000" height="1999" viewBox="0 0 2000 1999"><g transform="matrix(1,0,0,1,-0.431486880466764,-0.4312711370263287)"><svg viewBox="0 0 343 343" data-background-color="#ffffff" preserveAspectRatio="xMidYMid meet" height="1999" width="2000" xmlns="http://www.w3.org/2000/svg" xmlns:xlink="http://www.w3.org/1999/xlink"><g id="tight-bounds" transform="matrix(1,0,0,1,0.0740000000000407,0.07400000000001228)"><svg viewBox="0 0 342.85155851775386 342.85155851775386" height="342.85155851775386" width="342.85155851775386"><g><svg></svg></g><g><svg viewBox="0 0 342.85155851775386 342.85155851775386" height="342.85155851775386" width="342.85155851775386"><g><path d="M0 171.426c0-94.676 76.75-171.426 171.426-171.426 94.676 0 171.426 76.75 171.426 171.426 0 94.676-76.75 171.426-171.426 171.426-94.676 0-171.426-76.75-171.426-171.426zM171.426 332.002c88.684 0 160.577-71.893 160.576-160.576 0-88.684-71.893-160.577-160.576-160.577-88.684 0-160.577 71.893-160.577 160.577 0 88.684 71.893 160.577 160.577 160.576z" data-fill-palette-color="tertiary" fill="#915eff" stroke="transparent"></path><ellipse rx="164.56874808852186" ry="164.56874808852186" cx="171.42577925887693" cy="171.42577925887693" fill="#915eff" stroke="transparent" stroke-width="0" fill-opacity="1" data-fill-palette-color="tertiary"></ellipse></g><g transform="matrix(1,0,0,1,64.84655864529837,111.27414523661537)"><svg viewBox="0 0 213.1584412271571 120.30326804452312" height="120.30326804452312" width="213.1584412271571"><g><svg viewBox="0 0 213.1584412271571 120.30326804452312" height="120.30326804452312" width="213.1584412271571"><g><svg viewBox="0 0 339.4113842424725 191.55844122715712" height="120.30326804452312" width="213.1584412271571"><g><svg viewBox="0 0 181.82264132962308 191.55844122715712" height="191.55844122715712" width="181.82264132962308"><g id="textblocktransform"><svg viewBox="0 0 181.82264132962308 191.55844122715712" height="191.55844122715712" width="181.82264132962308" id="textblock"><g><svg viewBox="0 0 181.82264132962308 191.55844122715712" height="191.55844122715712" width="181.82264132962308"><g transform="matrix(1,0,0,1,0,0)"><svg width="181.82264132962308" viewBox="2 -35.9 34.55 36.4" height="191.55844122715712" data-palette-color="#ffffff"><path d="M20.95 0.5L20.95 0.5Q17.1 0.5 13.68-0.28 10.25-1.05 7.63-3.05 5-5.05 3.5-8.6 2-12.15 2-17.7L2-17.7Q2-23.05 3.6-26.58 5.2-30.1 7.88-32.15 10.55-34.2 13.83-35.05 17.1-35.9 20.45-35.9L20.45-35.9Q22.9-35.9 24.7-35.65 26.5-35.4 28.15-35L28.15-35 34.95-31.05 31.45-23.3 20.4-27.2Q18-27.2 15.98-26.25 13.95-25.3 12.73-23.23 11.5-21.15 11.5-17.65L11.5-17.65Q11.5-12 14.03-9.73 16.55-7.45 20.95-7.45L20.95-7.45Q23.2-7.45 24.48-7.68 25.75-7.9 26.45-8.05L26.45-8.05 26.45-11.85 20.1-11.85 20.1-19.25 36-19.25 36.55-16.25 35.45-12.1 35.45-1.6Q34.9-1.4 32.98-0.9 31.05-0.4 27.98 0.05 24.9 0.5 20.95 0.5Z" opacity="1" transform="matrix(1,0,0,1,0,0)" fill="#ffffff" class="wordmark-text-0" data-fill-palette-color="quaternary" id="text-0"></path></svg></g></svg></g></svg></g></svg></g><g transform="matrix(1,0,0,1,227.0449919007654,21.974571916564216)"><svg viewBox="0 0 112.36639234170707 147.6092973940287" height="147.6092973940287" width="112.36639234170707"><g><svg xmlns="http://www.w3.org/2000/svg" xmlns:xlink="http://www.w3.org/1999/xlink" version="1.1" x="0" y="0" viewBox="14.5 3.3 71.1 93.39999999999999" enable-background="new 0 0 100 100" xml:space="preserve" height="147.6092973940287" width="112.36639234170707" class="icon-icon-0" data-fill-palette-color="quaternary" id="icon-0"><path d="M52.1 84.4v8.1h12.2c1.2 0 2.1 1 2.1 2.1s-1 2.1-2.1 2.1H35.7c-1.2 0-2.1-1-2.1-2.1s1-2.1 2.1-2.1h12.2v-8.1H18.7c-2.3 0-4.2-1.9-4.2-4.2V39.9c0-2.3 1.9-4.2 4.2-4.2H33c1.2 0 2.1 1 2.1 2.1s-1 2.1-2.1 2.1H18.7l0 17.6v22.7l31.2 0c0 0 0 0 0.1 0 0 0 0 0 0.1 0l31.2 0 0-40.3-14.2 0c-1.2 0-2.1-1-2.1-2.1s1-2.1 2.1-2.1h14.3c2.3 0 4.2 1.9 4.2 4.2v40.3c0 2.3-1.9 4.2-4.2 4.2H52.1zM50.2 3.3c3.5 0.1 6.3 3 6.2 6.5-0.1 2.7-1.8 5-4.2 5.8v52.9c0 1.2-1 2.1-2.1 2.1-1.2 0-2.1-1-2.1-2.1V15.6c-0.9-0.3-1.8-0.9-2.5-1.6-1.2-1.2-1.8-2.8-1.8-4.5 0.1-3.4 2.9-6.2 6.4-6.2L50.2 3.3zM50.1 7.5L50.1 7.5c-1.2 0-2.1 0.9-2.2 2.1 0 0.6 0.2 1.1 0.6 1.5 0.4 0.4 0.9 0.6 1.5 0.7l0.1 0c1.1 0 2.1-0.9 2.1-2.1C52.1 8.5 51.2 7.6 50.1 7.5zM57.2 58.6V25.9c0-3.8 3.1-6.9 6.9-6.9h4.8c0.9-2.5 3.2-4.2 6-4.2 3.5 0 6.4 2.9 6.4 6.4s-2.9 6.4-6.4 6.4c-2.8 0-5.1-1.8-6-4.2h-4.8c-1.5 0-2.6 1.2-2.6 2.6v32.7c0 1.2-1 2.1-2.1 2.1C58.2 60.8 57.2 59.8 57.2 58.6zM72.8 21.2c0 1.2 0.9 2.1 2.1 2.1 1.2 0 2.1-0.9 2.1-2.1S76.1 19 74.9 19C73.7 19 72.8 20 72.8 21.2zM38.5 58.6V25.9c0-1.5-1.2-2.6-2.6-2.6h-4.8c-0.9 2.5-3.2 4.2-6 4.2-3.5 0-6.4-2.9-6.4-6.4s2.9-6.4 6.4-6.4c2.8 0 5.1 1.8 6 4.2h4.8c3.8 0 6.9 3.1 6.9 6.9v32.7c0 1.2-1 2.1-2.1 2.1S38.5 59.8 38.5 58.6zM27.2 21.2c0-1.2-0.9-2.1-2.1-2.1S23 20 23 21.2s0.9 2.1 2.1 2.1S27.2 22.3 27.2 21.2z" fill="#ffffff" data-fill-palette-color="quaternary"></path></svg></g></svg></g></svg></g></svg></g></svg></g></svg></g><defs></defs></svg><rect width="342.85155851775386" height="342.85155851775386" fill="none" stroke="none" visibility="hidden"></rect></g></svg></g></svg>